<svg width="50" height="50" viewBox="0 0 50 50" fill="none" xmlns="http://www.w3.org/2000/svg">
<path d="M24.1503 17.9695C24.1503 18.3965 24.3337 19.0253 25.9193 19.5538C26.5927 19.7783 28.6421 20.4614 28.6421 22.4614C28.6421 23.8441 27.6836 25.0066 26.3963 25.3207V25.6195C26.3963 26.0047 26.084 26.3169 25.6988 26.3169C25.3136 26.3169 25.0013 26.0047 25.0013 25.6195V25.3207C23.7139 25.0066 22.7554 23.8441 22.7554 22.4614C22.7554 22.0761 23.0676 21.764 23.4528 21.764C23.838 21.764 24.1503 22.0761 24.1503 22.4614C24.1503 23.3154 24.8449 24.0099 25.6988 24.0099C26.5527 24.0099 27.2472 23.3153 27.2472 22.4614C27.2472 21.9696 27.0371 21.3967 25.4782 20.8772C23.6714 20.2749 22.7554 19.2966 22.7554 17.9695C22.7554 16.5869 23.7139 15.4245 25.0013 15.1104V14.8116C25.0013 14.4263 25.3136 14.1141 25.6988 14.1141C26.084 14.1141 26.3963 14.4263 26.3963 14.8116V15.1104C27.6836 15.4245 28.6421 16.5869 28.6421 17.9695C28.6421 18.3548 28.3299 18.667 27.9447 18.667C27.5595 18.667 27.2472 18.3548 27.2472 17.9695C27.2472 17.1157 26.5526 16.4211 25.6988 16.4211C24.845 16.4211 24.1503 17.1157 24.1503 17.9695ZM50 8.05093V32.38C50 32.7653 49.6877 33.0775 49.3025 33.0775H48.6024V37.0672C48.6024 37.2641 48.5191 37.452 48.3732 37.5842C48.2443 37.7008 48.0772 37.7646 47.905 37.7646C47.8821 37.7646 47.8591 37.7635 47.836 37.7612L45.8073 37.5598V41.9491C45.8073 42.1599 45.712 42.3593 45.548 42.4917C45.4229 42.5928 45.2678 42.6465 45.1098 42.6465C45.0609 42.6465 45.0116 42.6413 44.9629 42.6309L0.558334 33.0635C0.557125 33.0632 0.556009 33.0631 0.5548 33.0628L0.550615 33.0619C0.540107 33.0596 0.530064 33.0565 0.519742 33.0538C0.511837 33.0517 0.503747 33.0499 0.495935 33.0476C0.486357 33.0447 0.477058 33.0412 0.467572 33.038C0.464131 33.0367 0.460598 33.0355 0.457157 33.0342C0.450182 33.0317 0.443115 33.0296 0.436233 33.0268C0.434559 33.0261 0.432979 33.0254 0.431305 33.0247C0.422842 33.0212 0.414566 33.0171 0.406289 33.0133C0.397548 33.0093 0.388714 33.0057 0.380158 33.0013C0.378019 33.0002 0.375973 32.9989 0.373835 32.9977C0.373556 32.9976 0.373277 32.9974 0.372905 32.9972C0.365 32.993 0.357375 32.9886 0.349656 32.9841C0.341938 32.9796 0.334126 32.9756 0.326687 32.9708C0.323153 32.9686 0.319805 32.9661 0.316271 32.9637C0.309483 32.9594 0.30288 32.9546 0.296278 32.9501C0.289675 32.9454 0.282887 32.9409 0.27647 32.9359C0.272006 32.9326 0.267729 32.929 0.263358 32.9254C0.257499 32.9208 0.251734 32.916 0.246061 32.9112C0.240575 32.9065 0.234995 32.9018 0.229601 32.897C0.224394 32.8923 0.219465 32.8873 0.214443 32.8825C0.209422 32.8776 0.2044 32.873 0.199564 32.8681C0.195194 32.8635 0.190916 32.8589 0.186638 32.8544C0.180966 32.8482 0.175479 32.8418 0.169992 32.8354C0.165715 32.8305 0.161251 32.8258 0.157159 32.8208C0.153812 32.8167 0.150743 32.8124 0.147488 32.8083C0.141908 32.8011 0.136608 32.7938 0.131307 32.7864C0.12768 32.7813 0.123682 32.7765 0.120148 32.7713C0.117358 32.7672 0.11494 32.7628 0.11215 32.7585C0.107129 32.7508 0.102386 32.743 0.0976433 32.735C0.0942956 32.7293 0.0906688 32.7237 0.087507 32.7179C0.0846242 32.7126 0.0819274 32.7073 0.0791376 32.702C0.0755109 32.6951 0.0720701 32.6881 0.0687223 32.681C0.0655605 32.6745 0.0624917 32.6679 0.0595159 32.6613C0.0567261 32.6551 0.0540293 32.6488 0.0514255 32.6425C0.0490077 32.6366 0.0467758 32.6307 0.044544 32.6248C0.0416612 32.6171 0.0390573 32.6093 0.0364535 32.6015C0.0340357 32.5945 0.0316178 32.5875 0.029479 32.5802C0.0280841 32.5756 0.0267822 32.5709 0.0254803 32.5663C0.0228764 32.5571 0.0208306 32.5477 0.0186917 32.5383C0.0169248 32.5308 0.014879 32.5233 0.0133911 32.5157C0.0127401 32.5124 0.0121822 32.5091 0.0115312 32.5058C0.00939236 32.494 0.00790446 32.4819 0.00641656 32.4699C0.00548663 32.4628 0.00418471 32.4559 0.00344077 32.4487C0.00325478 32.447 0.00316178 32.4453 0.0029758 32.4436C0.00111592 32.4227 0 32.4015 0 32.38V8.05093C0 7.66565 0.312273 7.35347 0.697453 7.35347H49.3025C49.6877 7.35347 50 7.66565 50 8.05093ZM42.065 31.6826C42.3953 28.2287 45.1512 25.4728 48.6051 25.1425V15.2883C45.1512 14.958 42.3953 12.2022 42.065 8.74829H7.93496C7.60465 12.2023 4.84878 14.9581 1.39491 15.2883V25.1425C4.84878 25.4728 7.60465 28.2287 7.93496 31.6826H42.065ZM6.53141 31.6826C6.21244 28.9988 4.0787 26.865 1.39491 26.5461V31.6826H6.53141ZM6.53141 8.74838H1.39491V13.8849C4.0787 13.5658 6.21244 11.4322 6.53141 8.74838ZM48.6051 8.74838H43.4686C43.7876 11.4322 45.9213 13.5659 48.6051 13.8849V8.74838ZM44.4123 37.4213L12.8715 34.2896L44.4124 41.0854V37.4213H44.4123ZM47.2075 33.0775H14.7807L47.2075 36.2971V33.0775ZM48.6051 31.6826V26.5461C45.9213 26.865 43.7876 28.9988 43.4686 31.6826H47.9032C47.9037 31.6826 47.9044 31.6825 47.9049 31.6825C47.9055 31.6825 47.9062 31.6826 47.9067 31.6826H48.6051ZM32.2873 14.7399C31.9722 14.9615 31.8964 15.3965 32.1179 15.7116C33.0479 17.0346 33.5396 18.5919 33.5396 20.2154C33.5396 24.5388 30.0222 28.0562 25.6988 28.0562C21.3753 28.0562 17.8579 24.5388 17.8579 20.2154C17.8579 15.8921 21.3753 12.3747 25.6988 12.3747C27.3224 12.3747 28.8799 12.8663 30.2029 13.7965C30.5181 14.0183 30.9531 13.9424 31.1746 13.6272C31.3962 13.3121 31.3204 12.8771 31.0053 12.6555C29.4461 11.5593 27.6111 10.9798 25.6988 10.9798C20.6062 10.9798 16.463 15.1229 16.463 20.2154C16.463 25.3079 20.6062 29.4511 25.6988 29.4511C30.7914 29.4511 34.9345 25.3079 34.9345 20.2154C34.9345 18.3032 34.3551 16.4684 33.2589 14.9093C33.0376 14.5942 32.6025 14.5185 32.2873 14.7399Z" fill="black"/>
</svg>
