<svg width="50" height="50" viewBox="0 0 50 50" fill="none" xmlns="http://www.w3.org/2000/svg">
<path d="M39.8633 37.7344C36.9336 37.7344 34.5605 40.1074 34.5508 43.0469C34.5508 45.9766 36.9238 48.3496 39.8633 48.3496C42.793 48.3496 45.166 45.9766 45.166 43.0469C45.166 40.1172 42.793 37.7344 39.8633 37.7344ZM39.8633 46.2305C38.1055 46.2305 36.6797 44.8047 36.6797 43.0469C36.6797 41.2891 38.1055 39.8633 39.8633 39.8633C41.6211 39.8633 43.0469 41.2891 43.0469 43.0469C43.0469 44.8047 41.6211 46.2305 39.8633 46.2305Z" fill="#313131"/>
<path d="M18.6328 37.7344C15.7031 37.7344 13.3203 40.1074 13.3203 43.0469C13.3203 45.9863 15.6934 48.3496 18.6328 48.3496C21.5625 48.3496 23.9355 45.9766 23.9355 43.0469C23.9355 40.1172 21.5625 37.7344 18.6328 37.7344ZM18.6328 46.2305C16.875 46.2305 15.4492 44.8047 15.4492 43.0469C15.4492 41.2891 16.875 39.8633 18.6328 39.8633C20.3906 39.8633 21.8164 41.2891 21.8164 43.0469C21.8164 44.8047 20.3906 46.2305 18.6328 46.2305Z" fill="#313131"/>
<path d="M48.3496 8.01758H10.1562L9.05273 2.5C8.95508 2.00195 8.51562 1.65039 8.01758 1.65039H1.65039C1.06445 1.65039 0.585938 2.12891 0.585938 2.71484C0.585938 3.30078 1.06445 3.7793 1.65039 3.7793H7.14844L12.3242 29.6484C13.0273 33.1152 16.0742 35.6152 19.6094 35.625H44.1113C44.6973 35.625 45.1758 35.1465 45.1758 34.5606C45.1758 33.9746 44.6973 33.4961 44.1113 33.4961H19.6094C17.0801 33.4863 14.9023 31.709 14.4043 29.2285L13.9844 27.1289H42.4805C45.1562 27.1191 47.4121 25.1367 47.7441 22.4805L49.4043 9.21875C49.4141 9.16992 49.4141 9.13086 49.4141 9.08203C49.4141 8.48633 48.9355 8.01758 48.3496 8.01758ZM45.6445 22.207C45.4395 23.7988 44.0918 24.9902 42.4805 25H13.5547L10.5859 10.1367H47.1484L45.6445 22.207Z" fill="#313131"/>
</svg>
