<svg width="50" height="50" viewBox="0 0 50 50" fill="none" xmlns="http://www.w3.org/2000/svg">
<path d="M14.8438 21.875C14.8438 22.0822 14.9261 22.2809 15.0726 22.4274C15.2191 22.5739 15.4178 22.6562 15.625 22.6562H31.25C31.4572 22.6562 31.6559 22.5739 31.8024 22.4274C31.9489 22.2809 32.0312 22.0822 32.0312 21.875C32.0312 21.6678 31.9489 21.4691 31.8024 21.3226C31.6559 21.1761 31.4572 21.0938 31.25 21.0938H15.625C15.4178 21.0938 15.2191 21.1761 15.0726 21.3226C14.9261 21.4691 14.8438 21.6678 14.8438 21.875ZM15.625 27.3438H31.25C31.4572 27.3438 31.6559 27.4261 31.8024 27.5726C31.9489 27.7191 32.0312 27.9178 32.0312 28.125C32.0312 28.3322 31.9489 28.5309 31.8024 28.6774C31.6559 28.8239 31.4572 28.9062 31.25 28.9062H15.625C15.4178 28.9062 15.2191 28.8239 15.0726 28.6774C14.9261 28.5309 14.8438 28.3322 14.8438 28.125C14.8438 27.9178 14.9261 27.7191 15.0726 27.5726C15.2191 27.4261 15.4178 27.3438 15.625 27.3438ZM5.46875 12.5V35.9375C5.47388 36.9719 5.88708 37.9625 6.61853 38.694C7.34999 39.4254 8.34058 39.8386 9.375 39.8438H43.75C44.7826 39.8438 45.7732 39.4349 46.5053 38.7066C47.2373 37.9782 47.6511 36.9896 47.6562 35.957V17.1875C47.6562 16.9803 47.5739 16.7816 47.4274 16.6351C47.2809 16.4886 47.0822 16.4062 46.875 16.4062C46.6678 16.4062 46.4691 16.4886 46.3226 16.6351C46.1761 16.7816 46.0938 16.9803 46.0938 17.1875V35.9375C46.0938 36.5591 45.8468 37.1552 45.4073 37.5948C44.9677 38.0343 44.3716 38.2812 43.75 38.2812C43.1284 38.2812 42.5323 38.0343 42.0927 37.5948C41.6532 37.1552 41.4062 36.5591 41.4062 35.9375V12.5C41.4062 11.8784 41.1593 11.2823 40.7198 10.8427C40.2802 10.4032 39.6841 10.1563 39.0625 10.1562H7.8125C7.1909 10.1562 6.59476 10.4032 6.15522 10.8427C5.71568 11.2823 5.46875 11.8784 5.46875 12.5ZM7.03125 12.5C7.03125 12.2928 7.11356 12.0941 7.26007 11.9476C7.40659 11.8011 7.6053 11.7188 7.8125 11.7188H39.0625C39.2697 11.7188 39.4684 11.8011 39.6149 11.9476C39.7614 12.0941 39.8438 12.2928 39.8438 12.5V35.9375C39.8423 36.7829 40.1166 37.6058 40.625 38.2812H9.375C8.7534 38.2812 8.15726 38.0343 7.71772 37.5948C7.27818 37.1552 7.03125 36.5591 7.03125 35.9375V12.5Z" fill="black"/>
</svg>
