<svg width="50" height="50" viewBox="0 0 50 50" fill="none" xmlns="http://www.w3.org/2000/svg">
<path fill-rule="evenodd" clip-rule="evenodd" d="M30.7476 8.33333H39.2857C40.5487 8.33333 41.7599 8.83503 42.6529 9.72806C43.5459 10.6211 44.0476 11.8323 44.0476 13.0952V21.6333C44.0475 22.2647 43.7966 22.8702 43.35 23.3167L27.1762 39.4905C26.2832 40.3832 25.0722 40.8847 23.8095 40.8847C22.5469 40.8847 21.3359 40.3832 20.4429 39.4905L12.8905 31.9381C11.9978 31.0451 11.4963 29.8341 11.4963 28.5714C11.4963 27.3087 11.9978 26.0977 12.8905 25.2048L29.0643 9.03095C29.5107 8.5844 30.1162 8.33346 30.7476 8.33333V8.33333Z" stroke="black" stroke-width="1.90476" stroke-linecap="round" stroke-linejoin="round"/>
<path d="M20.2381 39.2857L15.4452 41.6809C14.8484 41.9794 14.1955 42.1491 13.5289 42.179C12.8623 42.2089 12.1968 42.0984 11.5756 41.8546C10.9544 41.6108 10.3914 41.2392 9.92313 40.7638C9.45482 40.2885 9.09164 39.72 8.85715 39.0952L5.01192 28.8428C4.61158 27.7748 4.60793 26.5985 5.00162 25.5279C5.39532 24.4574 6.16021 23.5637 7.15715 23.0095L25 13.0952" stroke="black" stroke-width="1.90476" stroke-linecap="round" stroke-linejoin="round"/>
<path d="M40.4762 14.2857C40.4762 12.9707 39.4102 11.9048 38.0952 11.9048C36.7803 11.9048 35.7143 12.9707 35.7143 14.2857C35.7143 15.6007 36.7803 16.6667 38.0952 16.6667C39.4102 16.6667 40.4762 15.6007 40.4762 14.2857Z" fill="black"/>
</svg>
