<svg width="50" height="50" viewBox="0 0 50 50" fill="none" xmlns="http://www.w3.org/2000/svg">
<path d="M35.3889 16.5972C34.292 16.5972 33.4028 15.708 33.4028 14.6111C33.4028 13.5142 34.292 12.625 35.3889 12.625C36.4858 12.625 37.375 13.5142 37.375 14.6111C37.375 15.708 36.4858 16.5972 35.3889 16.5972Z" fill="black"/>
<path d="M5.65277 26.6667L25.9306 6.38889C26.1862 6.12808 26.4907 5.92023 26.8267 5.77723C27.1628 5.63424 27.5237 5.55891 27.8889 5.55556H41.6667C42.4034 5.55556 43.1099 5.84822 43.6309 6.36915C44.1518 6.89008 44.4444 7.59662 44.4444 8.33334V22.1111C44.4413 22.8466 44.1466 23.5509 43.625 24.0695L23.3472 44.3472C23.0892 44.6055 22.7829 44.8104 22.4457 44.9502C22.1084 45.09 21.747 45.1619 21.3819 45.1619C21.0169 45.1619 20.6554 45.09 20.3182 44.9502C19.981 44.8104 19.6746 44.6055 19.4167 44.3472L5.66666 30.5972C5.40748 30.3402 5.20151 30.0345 5.06053 29.6978C4.91954 29.3611 4.84632 28.9999 4.84503 28.6348C4.84374 28.2698 4.91441 27.9081 5.05301 27.5704C5.19161 27.2326 5.39542 26.9256 5.65277 26.6667ZM21.3611 42.3889L41.6667 22.0972V8.33334H27.8889L7.61111 28.6389L21.3611 42.3889Z" fill="black"/>
</svg>
