<svg width="50" height="40" viewBox="0 0 50 40" fill="none" xmlns="http://www.w3.org/2000/svg">
<g clip-path="url(#clip0_4_75)">
<path d="M21.75 0.644542C23.8363 -0.214847 26.1637 -0.214847 28.25 0.644542L42.6425 6.57809C43.3377 6.86438 43.9338 7.35842 44.354 7.99659C44.7741 8.63475 44.9991 9.38782 45 10.1588V29.8412C45.0001 30.6131 44.7756 31.3673 44.3554 32.0064C43.9351 32.6456 43.3385 33.1404 42.6425 33.4271L28.25 39.3555C26.1637 40.2148 23.8363 40.2148 21.75 39.3555L7.3575 33.4271C6.66148 33.1404 6.06486 32.6456 5.64464 32.0064C5.22441 31.3673 4.99987 30.6131 5 29.8412V10.1588C5.00037 9.38738 5.22515 8.63375 5.64534 7.99508C6.06553 7.35641 6.66188 6.86197 7.3575 6.57551L21.75 0.644542ZM27.32 3.03855C25.8299 2.4248 24.1676 2.4248 22.6775 3.03855L9.615 8.41865L15.3125 10.7612L30.6975 4.42863L27.3225 3.03855H27.32ZM34.0625 5.81097L18.6775 12.1461L25 14.7538L40.385 8.41607L34.0625 5.81355V5.81097ZM23.75 17.0088L7.5 10.3158V29.8386C7.49956 30.0961 7.57413 30.3478 7.71407 30.5612C7.85401 30.7746 8.05288 30.9398 8.285 31.0356L22.68 36.964C23.03 37.1056 23.3875 37.2163 23.75 37.2935V17.0088ZM26.25 17.0088V37.2935C26.6155 37.2167 26.9736 37.1064 27.32 36.964L41.715 31.0356C41.9467 30.94 42.1453 30.7751 42.2852 30.5623C42.4251 30.3494 42.4999 30.0982 42.5 29.8412V10.3184L26.25 17.0113V17.0088Z" fill="black"/>
</g>
<defs>
<clipPath id="clip0_4_75">
<rect width="50" height="40" fill="white"/>
</clipPath>
</defs>
</svg>
